<svg width="179" height="40" viewBox="0 0 179 40" fill="none" xmlns="http://www.w3.org/2000/svg">
<path d="M61.636 28.147C60.558 28.147 59.592 27.972 58.738 27.622C57.884 27.272 57.198 26.754 56.68 26.068C56.176 25.382 55.91 24.556 55.882 23.59H59.704C59.76 24.136 59.949 24.556 60.271 24.85C60.593 25.13 61.013 25.27 61.531 25.27C62.063 25.27 62.483 25.151 62.791 24.913C63.099 24.661 63.253 24.318 63.253 23.884C63.253 23.52 63.127 23.219 62.875 22.981C62.637 22.743 62.336 22.547 61.972 22.393C61.622 22.239 61.118 22.064 60.46 21.868C59.508 21.574 58.731 21.28 58.129 20.986C57.527 20.692 57.009 20.258 56.575 19.684C56.141 19.11 55.924 18.361 55.924 17.437C55.924 16.065 56.421 14.994 57.415 14.224C58.409 13.44 59.704 13.048 61.3 13.048C62.924 13.048 64.233 13.44 65.227 14.224C66.221 14.994 66.753 16.072 66.823 17.458H62.938C62.91 16.982 62.735 16.611 62.413 16.345C62.091 16.065 61.678 15.925 61.174 15.925C60.74 15.925 60.39 16.044 60.124 16.282C59.858 16.506 59.725 16.835 59.725 17.269C59.725 17.745 59.949 18.116 60.397 18.382C60.845 18.648 61.545 18.935 62.497 19.243C63.449 19.565 64.219 19.873 64.807 20.167C65.409 20.461 65.927 20.888 66.361 21.448C66.795 22.008 67.012 22.729 67.012 23.611C67.012 24.451 66.795 25.214 66.361 25.9C65.941 26.586 65.325 27.132 64.513 27.538C63.701 27.944 62.742 28.147 61.636 28.147Z" fill="white"/>
<path d="M80.2679 21.952C80.2679 22.288 80.2469 22.638 80.2049 23.002H72.0779C72.1339 23.73 72.3649 24.29 72.7709 24.682C73.1909 25.06 73.7019 25.249 74.3039 25.249C75.1999 25.249 75.8229 24.871 76.1729 24.115H79.9949C79.7989 24.885 79.4419 25.578 78.9239 26.194C78.4199 26.81 77.7829 27.293 77.0129 27.643C76.2429 27.993 75.3819 28.168 74.4299 28.168C73.2819 28.168 72.2599 27.923 71.3639 27.433C70.4679 26.943 69.7679 26.243 69.2639 25.333C68.7599 24.423 68.5079 23.359 68.5079 22.141C68.5079 20.923 68.7529 19.859 69.2429 18.949C69.7469 18.039 70.4469 17.339 71.3429 16.849C72.2389 16.359 73.2679 16.114 74.4299 16.114C75.5639 16.114 76.5719 16.352 77.4539 16.828C78.3359 17.304 79.0219 17.983 79.5119 18.865C80.0159 19.747 80.2679 20.776 80.2679 21.952ZM76.5929 21.007C76.5929 20.391 76.3829 19.901 75.9629 19.537C75.5429 19.173 75.0179 18.991 74.3879 18.991C73.7859 18.991 73.2749 19.166 72.8549 19.516C72.4489 19.866 72.1969 20.363 72.0989 21.007H76.5929Z" fill="white"/>
<path d="M93.7334 16.282V28H90.1424V26.404C89.7784 26.922 89.2814 27.342 88.6514 27.664C88.0354 27.972 87.3494 28.126 86.5934 28.126C85.6974 28.126 84.9064 27.93 84.2204 27.538C83.5344 27.132 83.0024 26.551 82.6244 25.795C82.2464 25.039 82.0574 24.15 82.0574 23.128V16.282H85.6274V22.645C85.6274 23.429 85.8304 24.038 86.2364 24.472C86.6424 24.906 87.1884 25.123 87.8744 25.123C88.5744 25.123 89.1274 24.906 89.5334 24.472C89.9394 24.038 90.1424 23.429 90.1424 22.645V16.282H93.7334Z" fill="white"/>
<path d="M109.688 20.44C110.542 20.622 111.228 21.049 111.746 21.721C112.264 22.379 112.523 23.135 112.523 23.989C112.523 25.221 112.089 26.201 111.221 26.929C110.367 27.643 109.17 28 107.63 28H100.763V13.258H107.399C108.897 13.258 110.066 13.601 110.906 14.287C111.76 14.973 112.187 15.904 112.187 17.08C112.187 17.948 111.956 18.669 111.494 19.243C111.046 19.817 110.444 20.216 109.688 20.44ZM104.354 19.222H106.706C107.294 19.222 107.742 19.096 108.05 18.844C108.372 18.578 108.533 18.193 108.533 17.689C108.533 17.185 108.372 16.8 108.05 16.534C107.742 16.268 107.294 16.135 106.706 16.135H104.354V19.222ZM107 25.102C107.602 25.102 108.064 24.969 108.386 24.703C108.722 24.423 108.89 24.024 108.89 23.506C108.89 22.988 108.715 22.582 108.365 22.288C108.029 21.994 107.56 21.847 106.958 21.847H104.354V25.102H107Z" fill="white"/>
<path d="M113.892 22.12C113.892 20.916 114.116 19.859 114.564 18.949C115.026 18.039 115.649 17.339 116.433 16.849C117.217 16.359 118.092 16.114 119.058 16.114C119.884 16.114 120.605 16.282 121.221 16.618C121.851 16.954 122.334 17.395 122.67 17.941V16.282H126.261V28H122.67V26.341C122.32 26.887 121.83 27.328 121.2 27.664C120.584 28 119.863 28.168 119.037 28.168C118.085 28.168 117.217 27.923 116.433 27.433C115.649 26.929 115.026 26.222 114.564 25.312C114.116 24.388 113.892 23.324 113.892 22.12ZM122.67 22.141C122.67 21.245 122.418 20.538 121.914 20.02C121.424 19.502 120.822 19.243 120.108 19.243C119.394 19.243 118.785 19.502 118.281 20.02C117.791 20.524 117.546 21.224 117.546 22.12C117.546 23.016 117.791 23.73 118.281 24.262C118.785 24.78 119.394 25.039 120.108 25.039C120.822 25.039 121.424 24.78 121.914 24.262C122.418 23.744 122.67 23.037 122.67 22.141Z" fill="white"/>
<path d="M132.45 18.235C132.87 17.591 133.395 17.087 134.025 16.723C134.655 16.345 135.355 16.156 136.125 16.156V19.957H135.138C134.242 19.957 133.57 20.153 133.122 20.545C132.674 20.923 132.45 21.595 132.45 22.561V28H128.859V16.282H132.45V18.235Z" fill="white"/>
<path d="M141.432 18.235C141.852 17.591 142.377 17.087 143.007 16.723C143.637 16.345 144.337 16.156 145.107 16.156V19.957H144.12C143.224 19.957 142.552 20.153 142.104 20.545C141.656 20.923 141.432 21.595 141.432 22.561V28H137.841V16.282H141.432V18.235Z" fill="white"/>
<path d="M148.629 15.064C147.999 15.064 147.481 14.882 147.075 14.518C146.683 14.14 146.487 13.678 146.487 13.132C146.487 12.572 146.683 12.11 147.075 11.746C147.481 11.368 147.999 11.179 148.629 11.179C149.245 11.179 149.749 11.368 150.141 11.746C150.547 12.11 150.75 12.572 150.75 13.132C150.75 13.678 150.547 14.14 150.141 14.518C149.749 14.882 149.245 15.064 148.629 15.064ZM150.414 16.282V28H146.823V16.282H150.414Z" fill="white"/>
<path d="M157.469 16.114C158.295 16.114 159.016 16.282 159.632 16.618C160.262 16.954 160.745 17.395 161.081 17.941V16.282H164.672V27.979C164.672 29.057 164.455 30.03 164.021 30.898C163.601 31.78 162.95 32.48 162.068 32.998C161.2 33.516 160.115 33.775 158.813 33.775C157.077 33.775 155.67 33.362 154.592 32.536C153.514 31.724 152.898 30.618 152.744 29.218H156.293C156.405 29.666 156.671 30.016 157.091 30.268C157.511 30.534 158.029 30.667 158.645 30.667C159.387 30.667 159.975 30.45 160.409 30.016C160.857 29.596 161.081 28.917 161.081 27.979V26.32C160.731 26.866 160.248 27.314 159.632 27.664C159.016 28 158.295 28.168 157.469 28.168C156.503 28.168 155.628 27.923 154.844 27.433C154.06 26.929 153.437 26.222 152.975 25.312C152.527 24.388 152.303 23.324 152.303 22.12C152.303 20.916 152.527 19.859 152.975 18.949C153.437 18.039 154.06 17.339 154.844 16.849C155.628 16.359 156.503 16.114 157.469 16.114ZM161.081 22.141C161.081 21.245 160.829 20.538 160.325 20.02C159.835 19.502 159.233 19.243 158.519 19.243C157.805 19.243 157.196 19.502 156.692 20.02C156.202 20.524 155.957 21.224 155.957 22.12C155.957 23.016 156.202 23.73 156.692 24.262C157.196 24.78 157.805 25.039 158.519 25.039C159.233 25.039 159.835 24.78 160.325 24.262C160.829 23.744 161.081 23.037 161.081 22.141Z" fill="white"/>
<path d="M166.556 22.12C166.556 20.916 166.78 19.859 167.228 18.949C167.69 18.039 168.313 17.339 169.097 16.849C169.881 16.359 170.756 16.114 171.722 16.114C172.548 16.114 173.269 16.282 173.885 16.618C174.515 16.954 174.998 17.395 175.334 17.941V16.282H178.925V28H175.334V26.341C174.984 26.887 174.494 27.328 173.864 27.664C173.248 28 172.527 28.168 171.701 28.168C170.749 28.168 169.881 27.923 169.097 27.433C168.313 26.929 167.69 26.222 167.228 25.312C166.78 24.388 166.556 23.324 166.556 22.12ZM175.334 22.141C175.334 21.245 175.082 20.538 174.578 20.02C174.088 19.502 173.486 19.243 172.772 19.243C172.058 19.243 171.449 19.502 170.945 20.02C170.455 20.524 170.21 21.224 170.21 22.12C170.21 23.016 170.455 23.73 170.945 24.262C171.449 24.78 172.058 25.039 172.772 25.039C173.486 25.039 174.088 24.78 174.578 24.262C175.082 23.744 175.334 23.037 175.334 22.141Z" fill="white"/>
<path d="M34.1422 5.85781C30.3647 2.08031 25.3422 0 20 0C14.6578 0 9.63531 2.08031 5.85781 5.85781C2.08031 9.63531 0 14.6578 0 20C0 25.3422 2.08039 30.3646 5.85781 34.1422C9.63523 37.9198 14.6578 40 20 40C25.3422 40 30.3647 37.9197 34.1422 34.1422C37.9197 30.3647 40 25.3422 40 20C40 14.6578 37.9196 9.63539 34.1422 5.85781Z" fill="#33CC95"/>
<g clip-path="url(#clip0)">
<path d="M20.5714 8V33.1429" stroke="white" stroke-width="2" stroke-linecap="round" stroke-linejoin="round"/>
<path d="M26.2857 12.5714H17.7143C16.6534 12.5714 15.636 12.9929 14.8859 13.743C14.1357 14.4931 13.7143 15.5106 13.7143 16.5714C13.7143 17.6323 14.1357 18.6497 14.8859 19.3999C15.636 20.15 16.6534 20.5714 17.7143 20.5714H23.4286C24.4894 20.5714 25.5068 20.9929 26.257 21.743C27.0071 22.4931 27.4286 23.5106 27.4286 24.5714C27.4286 25.6323 27.0071 26.6497 26.257 27.3999C25.5068 28.15 24.4894 28.5714 23.4286 28.5714H13.7143" stroke="white" stroke-width="2" stroke-linecap="round" stroke-linejoin="round"/>
</g>
<defs>
<clipPath id="clip0">
<rect width="27.4286" height="27.4286" fill="white" transform="translate(6.85714 6.85714)"/>
</clipPath>
</defs>
</svg>
